# xmcd
#
# Track frame offsets:
#	150
#	21570
#	40047
#	63347
#	86637
#	106287
#	130715
#	155120
#	176145
#	199170
#
# Disc length: 3120 seconds
#
# Revision: 2
# Processed by: cddbd v1.5.2PL0 Copyright (c) Steve Scherf et al.
# Submitted via: EZCDAudioConverter 8.0.2.1
#
DISCID=880c2e0a
DTITLE=Ái Vân - Tóc em đuôi gà
DYEAR=1999
DGENRE=Blues
TTITLE0=Ái Vân - Ở trọ
TTITLE1=Ái Vân - Nhớ về Hội Lim
TTITLE2=Ái Vân - Đôi mắt mùa thu
TTITLE3=Ái Vân - Trái tim không ngủ yên
TTITLE4=Ái Vân - Tóc em đuôi gà
TTITLE5=Ái Vân - Chiều phủ Tây Hồ
TTITLE6=Ái Vân - Gửi người em gái
TTITLE7=Ái Vân - Xe đạp ơi
TTITLE8=Ái Vân - Tình buồn
TTITLE9=Ái Vân and Kiều Hưng - Thằng Bơm
EXTD=
EXTT0=
EXTT1=
EXTT2=
EXTT3=
EXTT4=
EXTT5=
EXTT6=
EXTT7=
EXTT8=
EXTT9=
PLAYORDER=
